<svg width="25" height="25" viewBox="0 0 25 25" fill="none" xmlns="http://www.w3.org/2000/svg">
<path d="M6.8073 3.125H21.875C22.1513 3.125 22.4162 3.23475 22.6116 3.4301C22.8069 3.62545 22.9167 3.8904 22.9167 4.16667V20.8333C22.9167 21.1096 22.8069 21.3746 22.6116 21.5699C22.4162 21.7653 22.1513 21.875 21.875 21.875H6.8073C6.63585 21.875 6.46704 21.8327 6.31586 21.7519C6.16467 21.671 6.03579 21.5541 5.94063 21.4115L0.385422 13.0781C0.271215 12.9069 0.210266 12.7058 0.210266 12.5C0.210266 12.2942 0.271215 12.0931 0.385422 11.9219L5.94063 3.58854C6.03579 3.44592 6.16467 3.32899 6.31586 3.24813C6.46704 3.16727 6.63585 3.12497 6.8073 3.125ZM7.36459 5.20833L2.50417 12.5L7.36459 19.7917H20.8333V5.20833H7.36459ZM13.5417 11.0271L16.4875 8.08021L17.9615 9.55417L15.0146 12.5L17.9615 15.4458L16.4875 16.9198L13.5417 13.9729L10.5958 16.9198L9.12188 15.4458L12.0688 12.5L9.12188 9.55417L10.5958 8.08021L13.5417 11.0271Z" fill="white"/>
</svg>
